<?xml version="1.0" standalone="no"?>
<!DOCTYPE svg PUBLIC "-//W3C//DTD SVG 20010904//EN"
 "http://www.w3.org/TR/2001/REC-SVG-20010904/DTD/svg10.dtd">
<svg version="1.0" xmlns="http://www.w3.org/2000/svg"
 width="930.000000pt" height="584.000000pt" viewBox="0 0 930.000000 584.000000"
 preserveAspectRatio="xMidYMid meet">
<metadata>
Created by potrace 1.15, written by Peter Selinger 2001-2017
</metadata>
<g transform="translate(0.000000,584.000000) scale(0.100000,-0.100000)"
fill="#000000" stroke="none">
<path d="M243 5826 c-94 -30 -187 -118 -222 -212 -21 -55 -21 -56 -21 -2694
l0 -2639 22 -58 c30 -80 121 -172 201 -201 l58 -22 4382 2 4382 3 45 24 c69
36 115 76 149 129 66 103 61 -101 59 2788 l-3 2619 -32 67 c-38 81 -97 142
-172 177 l-56 26 -4375 2 c-3579 1 -4383 -1 -4417 -11z m1495 -631 c2 -27 1
-128 -3 -222 l-7 -173 -24 0 c-16 0 -24 6 -24 17 0 15 -1 15 -18 0 -25 -23
-65 -21 -88 4 -27 30 -28 211 -1 252 20 31 60 36 89 10 17 -15 18 -13 18 76
l0 92 28 -3 c25 -3 27 -7 30 -53z m1320 -172 l2 -223 -30 0 c-17 0 -30 5 -30
12 0 9 -3 9 -12 0 -7 -7 -27 -12 -45 -12 -53 0 -68 34 -68 150 0 57 5 104 13
117 16 28 56 39 88 24 l24 -11 0 86 0 85 28 -3 27 -3 3 -222z m-2004 211 c9
-3 16 -17 16 -30 0 -21 -5 -24 -35 -24 -45 0 -67 -32 -76 -113 -16 -136 19
-226 83 -213 26 5 28 3 28 -24 0 -29 -1 -30 -49 -30 -94 0 -126 54 -125 215 1
123 22 182 75 208 36 18 58 21 83 11z m1330 0 c9 -3 16 -17 16 -30 0 -21 -5
-24 -33 -24 -23 0 -41 -8 -57 -25 -21 -22 -25 -38 -28 -119 -6 -143 20 -196
90 -182 27 5 29 4 26 -21 -6 -51 -88 -52 -138 -2 -42 42 -56 155 -36 281 14
89 92 148 160 122z m4748 -131 l3 -116 28 51 c22 41 34 52 53 52 31 0 30 -5
-5 -70 l-29 -54 34 -68 c19 -37 34 -70 34 -73 0 -3 -11 -5 -25 -5 -20 0 -31
12 -59 68 l-35 67 -1 -67 c0 -66 -1 -68 -25 -68 l-25 0 0 200 0 200 25 0 c24
0 24 0 27 -117z m-585 73 c30 -35 32 -103 4 -137 -19 -24 -19 -24 2 -47 15
-16 21 -36 21 -73 1 -44 -3 -54 -27 -75 -22 -19 -39 -24 -83 -24 l-54 0 0 188
c0 104 3 192 8 196 4 4 29 6 56 3 38 -3 55 -11 73 -31z m952 -94 l46 -123 3
126 c3 124 3 126 25 123 22 -3 22 -5 25 -195 l2 -193 -23 0 c-22 0 -29 13 -68
122 l-44 121 -3 -121 -3 -122 -24 0 -25 0 0 196 c0 195 0 195 22 192 17 -2 30
-25 67 -126z m-5499 59 c0 -30 4 -40 20 -44 12 -3 20 -14 20 -26 0 -14 -6 -21
-20 -21 -19 0 -20 -7 -20 -125 0 -125 0 -125 -24 -125 -21 0 -24 5 -29 68 -4
37 -7 93 -7 125 0 44 -3 57 -15 57 -9 0 -15 9 -15 25 0 16 6 25 15 25 10 0 15
10 15 33 0 40 6 47 37 47 20 0 23 -5 23 -39z m-740 -65 c0 -17 -7 -26 -25 -30
-35 -9 -45 -41 -45 -152 0 -94 0 -94 -25 -94 l-25 0 0 145 0 145 24 0 c13 0
26 -6 29 -12 3 -10 10 -8 23 5 26 24 44 21 44 -7z m195 -1 c14 -13 25 -35 25
-48 0 -14 3 -38 6 -55 l6 -31 -63 -3 -64 -3 3 -35 c4 -46 25 -68 46 -50 9 7
16 21 16 31 0 14 7 19 25 19 32 0 34 -36 4 -74 -22 -28 -72 -36 -108 -16 -58
30 -62 219 -6 268 35 29 79 29 110 -3z m405 -125 l0 -150 -24 0 c-24 0 -24 1
-31 139 -4 77 -4 144 0 150 3 6 17 11 31 11 l24 0 0 -150z m707 139 c8 -8 13
-8 17 0 4 6 18 11 32 11 l24 0 0 -150 0 -150 -30 0 c-17 0 -30 5 -30 12 0 9
-3 9 -12 0 -17 -17 -64 -15 -82 4 -16 15 -20 28 -30 94 -8 49 10 149 30 171
19 21 64 25 81 8z m201 -5 c8 -14 10 -14 21 0 21 25 51 20 51 -7 0 -17 -8 -25
-32 -32 l-33 -10 -3 -117 -3 -118 -29 0 -30 0 0 150 0 150 25 0 c13 0 28 -7
33 -16z m3960 -6 c9 -9 12 -9 12 0 0 7 11 12 25 12 l25 0 0 -135 0 -135 -25 0
c-14 0 -25 5 -25 12 0 9 -3 9 -12 0 -21 -21 -66 -14 -84 13 -25 38 -17 211 10
231 24 17 58 18 74 2z m270 0 c8 -7 12 -47 12 -134 l0 -124 -25 0 c-24 0 -24
0 -27 113 -3 104 -4 112 -23 112 -19 0 -20 -8 -23 -112 l-3 -113 -29 0 -30 0
0 134 0 134 68 0 c37 0 73 -5 80 -10z m757 2 c4 -6 13 -5 24 2 10 6 26 8 35 5
14 -5 16 -25 16 -137 l0 -130 -30 0 c-16 0 -30 5 -30 10 0 6 -7 6 -18 -1 -29
-18 -68 -3 -82 31 -19 46 -10 183 14 209 20 22 60 28 71 11z m185 0 c0 -7 6
-7 19 0 28 14 56 12 71 -5 11 -13 15 -13 33 0 31 21 63 18 81 -7 12 -17 16
-49 16 -135 l0 -113 -25 0 c-25 0 -25 0 -25 99 0 112 -4 131 -30 131 -26 0
-30 -19 -30 -131 0 -99 0 -99 -25 -99 -24 0 -24 1 -27 106 -3 90 -6 109 -21
118 -29 18 -37 -9 -37 -121 l0 -103 -25 0 -25 0 0 135 0 135 25 0 c14 0 25 -5
25 -10z m410 -8 c21 -17 46 -104 34 -123 -3 -5 -28 -9 -55 -9 l-50 0 3 -37 c2
-30 7 -38 23 -38 13 0 21 8 23 23 3 16 10 22 28 22 27 0 31 -18 13 -53 -16
-29 -28 -37 -62 -37 -61 0 -87 40 -87 132 0 110 66 172 130 120z m-7230 -787
c0 -8 5 -15 10 -15 6 0 10 7 10 15 0 13 27 15 180 15 153 0 180 -2 180 -15 0
-8 5 -15 10 -15 6 0 10 7 10 15 0 13 27 15 180 15 153 0 180 -2 180 -15 0 -8
5 -15 10 -15 6 0 10 7 10 16 0 14 10 16 60 12 86 -6 142 -52 160 -134 5 -21
10 -141 10 -266 l0 -228 -70 0 c-68 0 -70 1 -70 25 0 14 -4 25 -10 25 -5 0
-10 -11 -10 -25 l0 -25 -135 0 -135 0 0 25 c0 14 -4 25 -10 25 -5 0 -10 -16
-10 -37 0 -48 -40 -115 -87 -144 -55 -35 -136 -33 -191 4 -48 31 -82 90 -82
142 0 19 -4 35 -10 35 -5 0 -10 -11 -10 -25 0 -25 -1 -25 -80 -25 -79 0 -80 0
-80 25 0 14 -4 25 -10 25 -5 0 -10 -11 -10 -25 l0 -25 -115 0 -115 0 0 247 c0
230 1 250 21 290 28 58 86 93 157 93 40 0 52 -4 52 -15z m0 -687 c0 -29 -3
-104 -7 -165 l-6 -113 -38 0 c-49 0 -87 15 -123 48 -44 42 -56 81 -56 187 l0
95 115 0 115 0 0 -52z m195 15 c27 -64 81 -108 148 -122 15 -3 28 -9 28 -14
-1 -4 -1 -41 -1 -82 l0 -75 -175 0 -175 0 0 165 0 165 80 0 80 0 15 -37z m565
-15 c0 -29 -3 -104 -7 -165 l-6 -113 -174 0 -173 0 0 83 0 84 43 13 c50 15
115 78 124 121 l6 29 93 0 94 0 0 -52z m248 -46 c-3 -65 -11 -110 -23 -135
-25 -53 -83 -89 -151 -95 l-54 -4 0 166 0 166 116 0 117 0 -5 -98z m-1059
-1473 c37 -40 39 -153 5 -206 -11 -18 -24 -23 -59 -23 -37 0 -47 5 -61 25 -34
52 -30 169 7 206 26 26 82 25 108 -2z m393 4 c11 -10 18 -30 18 -54 0 -31 -9
-47 -51 -93 l-51 -56 56 0 c43 0 56 -3 56 -15 0 -12 -16 -15 -80 -15 -99 0
-102 9 -25 92 56 60 68 95 41 117 -10 8 -21 8 -45 0 -25 -9 -35 -9 -44 0 -33
34 88 57 125 24z m200 0 c22 -20 23 -60 2 -84 -14 -16 -14 -19 5 -38 28 -28
27 -62 -3 -90 -20 -19 -33 -22 -82 -19 -45 2 -60 7 -62 19 -3 14 6 17 48 15
43 -1 55 3 66 20 13 19 13 24 -1 38 -9 9 -30 16 -46 16 -39 0 -38 25 2 36 44
12 59 38 37 61 -14 14 -23 15 -52 6 -27 -8 -38 -8 -46 2 -27 33 97 50 132 18z"/>
</g>
</svg>
